<svg width="237" height="60" viewBox="0 0 237 60" fill="none" xmlns="http://www.w3.org/2000/svg">
<path d="M19.8106 1.43458L19.1325 0.718185L19.1278 0.722643L19.8106 1.43458ZM19.8728 1.49917L19.1603 2.18138L19.1603 2.18141L19.8728 1.49917ZM19.81 1.4351L20.4926 2.14724L20.4928 2.14704L19.81 1.4351ZM19.8079 1.43717L19.1253 0.72503L19.1249 0.725413L19.8079 1.43717ZM19.7993 1.44536L19.1164 0.733604L19.1156 0.73435L19.7993 1.44536ZM19.7656 1.47774L19.0819 0.766732L19.0815 0.767111L19.7656 1.47774ZM19.6342 1.60468L20.3204 2.31335V2.31335L19.6342 1.60468ZM19.1336 2.09262L18.4431 1.3882V1.3882L19.1336 2.09262ZM17.3302 3.88809L16.6293 3.19399V3.19399L17.3302 3.88809ZM11.7049 9.82357L12.4369 10.4847L11.7049 9.82357ZM5.65418 17.108L6.44746 17.6943L5.65418 17.108ZM1.89389 23.6217L0.952843 23.326H0.952843L1.89389 23.6217ZM1.06866 31.4884L0.0851419 31.564L1.06866 31.4884ZM1.40589 34.018L0.437631 34.2064H0.437631L1.40589 34.018ZM1.55837 34.722L2.51702 34.4896L2.51702 34.4896L1.55837 34.722ZM1.60518 34.9075L0.651484 35.1595L0.652605 35.1637L1.60518 34.9075ZM1.61806 34.9554L0.665451 35.2115L0.667421 35.2187L1.61806 34.9554ZM1.62146 34.9677L0.670822 35.231L0.671776 35.2344L1.62146 34.9677ZM1.62236 34.9709L0.672671 35.2375L0.6731 35.2391L1.62236 34.9709ZM1.6226 34.9717L0.673338 35.2399L0.673968 35.2421L1.6226 34.9717ZM1.62267 34.972L2.57377 34.7103L2.5713 34.7016L1.62267 34.972ZM1.70895 34.9475L1.97905 35.8962L1.97922 35.8962L1.70895 34.9475ZM1.79519 34.923L2.06546 35.8716L3.01435 35.6013L2.74379 34.6525L1.79519 34.923ZM1.79515 34.9228L0.846101 35.1918L0.846549 35.1933L1.79515 34.9228ZM1.79496 34.9222L0.845221 35.1886L0.845918 35.1911L1.79496 34.9222ZM1.79418 34.9194L0.843537 35.1826L0.844441 35.1859L1.79418 34.9194ZM1.791 34.9079L0.83839 35.164L0.840362 35.1711L1.791 34.9079ZM1.77858 34.8617L0.824883 35.1137L0.825997 35.1178L1.77858 34.8617ZM1.73267 34.6797L2.69131 34.4473L2.69131 34.4473L1.73267 34.6797ZM1.58194 33.9838L0.613678 34.1721H0.613678L1.58194 33.9838ZM1.24748 31.4747L0.263963 31.5503H0.263963L1.24748 31.4747ZM2.06499 23.6755L3.00603 23.9712H3.00603L2.06499 23.6755ZM5.79841 17.2146L5.00513 16.6283L5.79841 17.2146ZM11.838 9.94378L11.106 9.2826L11.106 9.2826L11.838 9.94378ZM17.4577 4.01429L18.1585 4.70839V4.70839L17.4577 4.01429ZM19.2592 2.2207L19.9497 2.92512L19.9497 2.92512L19.2592 2.2207ZM19.759 1.73353L19.0728 1.02484L19.0728 1.02485L19.759 1.73353ZM19.8058 1.68819L20.4883 0.976003L19.8029 0.319131L19.1203 0.978951L19.8058 1.68819ZM19.8143 1.69631L20.4973 0.984576L20.4968 0.984124L19.8143 1.69631ZM19.945 1.82214L20.63 1.11234V1.11234L19.945 1.82214ZM20.4435 2.30646L21.1329 1.60094L21.1329 1.60094L20.4435 2.30646ZM22.2403 4.08989L21.5405 4.78503V4.78503L22.2403 4.08989ZM27.8458 9.98854L28.577 9.3265L27.8458 9.98854ZM33.8712 17.2285L33.0783 17.8152L33.8712 17.2285ZM37.5981 23.6754L36.6571 23.9711V23.9711L37.5981 23.6754ZM38.4156 31.4745L39.3991 31.5501L38.4156 31.4745ZM38.0812 33.9836L37.1129 33.7952L37.1129 33.7952L38.0812 33.9836ZM37.9304 34.6796L38.8891 34.912L38.8891 34.912L37.9304 34.6796ZM37.8845 34.8615L38.8371 35.1177L38.8382 35.1135L37.8845 34.8615ZM37.8721 34.9077L38.8228 35.1707L38.8247 35.1639L37.8721 34.9077ZM37.8689 34.9192L38.8184 35.1868L38.8196 35.1822L37.8689 34.9192ZM37.8681 34.922L38.8174 35.1901L38.8176 35.1896L37.8681 34.922ZM37.8679 34.9227L36.9186 34.6546L36.9157 34.6653L37.8679 34.9227ZM37.8679 34.9228L36.9157 34.6655L36.6618 35.6049L37.5977 35.8715L37.8679 34.9228ZM37.9542 34.9474L37.6839 35.8961L37.684 35.8961L37.9542 34.9474ZM38.0254 34.9676L38.2943 34.0186L38.2941 34.0185L38.0254 34.9676ZM38.0404 34.9718L38.9762 35.2838L38.983 35.2634L38.9889 35.2428L38.0404 34.9718ZM38.0405 34.9716L38.989 35.2426L38.9894 35.2409L38.0405 34.9716ZM38.0407 34.9707L38.9897 35.24L38.9904 35.2374L38.0407 34.9707ZM38.0416 34.9675L38.9913 35.2342L38.9923 35.2307L38.0416 34.9675ZM38.045 34.9552L38.9957 35.2184L38.9976 35.2113L38.045 34.9552ZM38.0579 34.9074L39.0105 35.1635L39.0116 35.1594L38.0579 34.9074ZM38.1047 34.7218L37.1461 34.4894V34.4894L38.1047 34.7218ZM38.2572 34.0179L37.2889 33.8295H37.2889L38.2572 34.0179ZM38.5944 31.4883L37.6109 31.4127V31.4127L38.5944 31.4883ZM37.7692 23.6216L36.8282 23.9173L37.7692 23.6216ZM34.0153 17.1218L34.8082 16.535V16.535L34.0153 17.1218ZM27.9787 9.86817L27.2475 10.5302L27.9787 9.86817ZM22.3676 3.9635L21.6677 4.65864V4.65864L22.3676 3.9635ZM20.5689 2.17818L21.2582 1.47266L21.2582 1.47266L20.5689 2.17818ZM20.0696 1.69308L19.3846 2.40288L19.3846 2.40288L20.0696 1.69308ZM19.9385 1.5669L20.6214 0.85514L20.621 0.854719L19.9385 1.5669ZM19.9273 1.55616L19.2124 2.23583L19.2282 2.25246L19.2448 2.26834L19.9273 1.55616ZM20.4887 2.15096C20.509 2.1317 20.3465 2.3071 20.0823 2.38281C19.7973 2.4645 19.5624 2.39667 19.4513 2.35324C19.3451 2.31169 19.2711 2.26099 19.2457 2.24318C19.2127 2.22014 19.1881 2.19992 19.1762 2.18987C19.1521 2.16967 19.1344 2.15275 19.1299 2.14848C19.123 2.14181 19.1176 2.13652 19.1153 2.13422C19.1083 2.12726 19.1036 2.12224 19.1087 2.12756C19.1149 2.13395 19.1289 2.14862 19.1603 2.18138L20.5852 0.81695C20.5546 0.784946 20.5376 0.767265 20.5282 0.757524C20.5256 0.754777 20.5169 0.745751 20.5079 0.736812C20.5051 0.734013 20.4994 0.728355 20.4921 0.72141C20.4874 0.716865 20.4695 0.69977 20.4453 0.679462C20.4333 0.669356 20.4086 0.649091 20.3756 0.626022C20.3501 0.608188 20.2761 0.557464 20.1699 0.515912C20.0588 0.47247 19.8239 0.40464 19.5388 0.486334C19.2746 0.56205 19.1121 0.737458 19.1325 0.7182L20.4887 2.15096ZM20.4928 2.14704L20.4933 2.14652L19.1278 0.722643L19.1273 0.723166L20.4928 2.14704ZM20.4904 2.14931L20.4926 2.14724L19.1275 0.722962L19.1253 0.72503L20.4904 2.14931ZM20.4823 2.15712L20.4908 2.14893L19.1249 0.725413L19.1164 0.733605L20.4823 2.15712ZM20.4494 2.18876L20.483 2.15638L19.1156 0.73435L19.0819 0.766732L20.4494 2.18876ZM20.3204 2.31335C20.3773 2.25823 20.4207 2.21634 20.4498 2.18838L19.0815 0.767111C19.0511 0.796373 19.0064 0.83957 18.9481 0.896005L20.3204 2.31335ZM19.8241 2.79704C20.0387 2.58666 20.2065 2.42358 20.3204 2.31335L18.9481 0.896004C18.8315 1.00889 18.6608 1.17481 18.4431 1.3882L19.8241 2.79704ZM18.0311 4.58219C18.7783 3.8277 19.3948 3.21784 19.8241 2.79704L18.4431 1.3882C18.0078 1.81494 17.3842 2.43172 16.6293 3.19399L18.0311 4.58219ZM12.4369 10.4847C14.5209 8.17753 16.5362 6.09172 18.0311 4.58219L16.6293 3.19399C15.1202 4.71785 13.0829 6.82636 10.9729 9.16239L12.4369 10.4847ZM6.44746 17.6943C8.20636 15.3143 10.3512 12.7939 12.4369 10.4847L10.9729 9.16239C8.86505 11.4961 6.6732 14.0695 4.8609 16.5217L6.44746 17.6943ZM2.83493 23.9174C3.35072 22.276 4.67215 20.0964 6.44746 17.6943L4.8609 16.5217C3.06831 18.9472 1.57375 21.3501 0.952843 23.326L2.83493 23.9174ZM2.05217 31.4129C1.89675 29.3897 1.96466 26.687 2.83493 23.9174L0.952843 23.326C-0.0154643 26.4075 -0.0827403 29.3786 0.0851419 31.564L2.05217 31.4129ZM2.37415 33.8296C2.26208 33.2536 2.12967 32.4217 2.05217 31.4129L0.0851419 31.564C0.16934 32.66 0.313434 33.568 0.437631 34.2064L2.37415 33.8296ZM2.51702 34.4896C2.48093 34.3407 2.43014 34.1174 2.37415 33.8296L0.437631 34.2064C0.499781 34.5258 0.5571 34.7786 0.599732 34.9544L2.51702 34.4896ZM2.55887 34.6556C2.5494 34.6197 2.53505 34.564 2.51702 34.4896L0.599731 34.9544C0.621052 35.0423 0.638715 35.1111 0.651493 35.1595L2.55887 34.6556ZM2.57063 34.6993L2.55776 34.6514L0.652605 35.1637L0.665478 35.2115L2.57063 34.6993ZM2.5721 34.7044L2.56869 34.6921L0.667421 35.2187L0.670828 35.231L2.5721 34.7044ZM2.57205 34.7042L2.57115 34.701L0.671776 35.2344L0.672672 35.2375L2.57205 34.7042ZM2.57186 34.7036L2.57162 34.7027L0.6731 35.2391L0.673341 35.2399L2.57186 34.7036ZM2.5713 34.7016L2.57123 34.7014L0.673968 35.2421L0.674036 35.2424L2.5713 34.7016ZM1.43884 33.9988C1.39553 34.0112 1.37487 34.017 1.36512 34.0198C1.35906 34.0215 1.36038 34.0211 1.36374 34.0202C1.3649 34.0199 1.36784 34.0191 1.3717 34.0181C1.37414 34.0174 1.38408 34.0148 1.39696 34.0118C1.4033 34.0103 1.41657 34.0072 1.4335 34.0039C1.44498 34.0016 1.48592 33.9936 1.53907 33.9891C1.56608 33.9868 1.61746 33.9835 1.68196 33.9874C1.74043 33.9909 1.86304 34.0029 2.00523 34.0628C2.1727 34.1332 2.33587 34.257 2.45277 34.4391C2.50385 34.5187 2.53368 34.5904 2.5507 34.6377C2.55912 34.6611 2.56504 34.6803 2.5685 34.692C2.56984 34.6965 2.57181 34.7034 2.57245 34.7057C2.57309 34.708 2.57373 34.7103 2.57373 34.7103L0.671604 35.2337C0.671606 35.2337 0.672241 35.236 0.672881 35.2383C0.673526 35.2406 0.675495 35.2474 0.676836 35.252C0.680294 35.2637 0.686209 35.2829 0.694637 35.3063C0.711654 35.3535 0.741487 35.4253 0.792568 35.5048C0.909463 35.6869 1.07263 35.8107 1.24011 35.8812C1.48403 35.9838 1.70288 35.9551 1.70631 35.9548C1.75948 35.9503 1.80046 35.9423 1.81198 35.9401C1.82897 35.9367 1.84229 35.9337 1.84872 35.9322C1.86178 35.9291 1.87197 35.9264 1.87479 35.9257C1.87903 35.9245 1.88248 35.9236 1.88432 35.9231C1.89037 35.9214 1.89709 35.9195 1.90182 35.9182C1.91364 35.9149 1.93612 35.9085 1.97905 35.8962L1.43884 33.9988ZM1.52491 33.9743L1.43867 33.9989L1.97922 35.8962L2.06546 35.8716L1.52491 33.9743ZM0.846549 35.1933L0.846588 35.1935L2.74379 34.6525L2.74375 34.6523L0.846549 35.1933ZM0.845918 35.1911L0.846102 35.1918L2.7442 34.6539L2.74401 34.6533L0.845918 35.1911ZM0.844441 35.1859L0.845225 35.1886L2.74471 34.6557L2.74392 34.6529L0.844441 35.1859ZM0.840362 35.1711L0.843543 35.1826L2.74482 34.6561L2.74164 34.6447L0.840362 35.1711ZM0.825997 35.1178L0.838417 35.164L2.74358 34.6518L2.73116 34.6056L0.825997 35.1178ZM0.77403 34.9121C0.795052 34.9988 0.812414 35.0664 0.824892 35.1137L2.73227 34.6097C2.7231 34.575 2.70905 34.5205 2.69131 34.4473L0.77403 34.9121ZM0.613678 34.1721C0.675268 34.4887 0.731994 34.7388 0.77403 34.9121L2.69131 34.4473C2.65583 34.3009 2.60563 34.0803 2.55019 33.7954L0.613678 34.1721ZM0.263963 31.5503C0.347551 32.6384 0.490583 33.5394 0.613678 34.1721L2.5502 33.7954C2.43922 33.225 2.30788 32.4 2.23099 31.3991L0.263963 31.5503ZM1.12394 23.3798C0.164547 26.4329 0.0972136 29.3796 0.263963 31.5503L2.23099 31.3991C2.07671 29.3907 2.14468 26.7124 3.00603 23.9712L1.12394 23.3798ZM5.00513 16.6283C3.21414 19.0517 1.7353 21.4342 1.12394 23.3798L3.00603 23.9712C3.51226 22.3602 4.81792 20.2009 6.59169 17.8008L5.00513 16.6283ZM11.106 9.2826C9.00016 11.6141 6.81257 14.1827 5.00513 16.6283L6.59169 17.8008C8.34574 15.4275 10.4863 12.9119 12.57 10.605L11.106 9.2826ZM16.7568 3.32019C15.2489 4.84275 13.2136 6.9492 11.106 9.2826L12.57 10.605C14.6516 8.30037 16.6649 6.21662 18.1585 4.70839L16.7568 3.32019ZM18.5686 1.51627C18.1339 1.94248 17.511 2.55863 16.7568 3.32019L18.1585 4.70839C18.905 3.95461 19.5209 3.34538 19.9497 2.92512L18.5686 1.51627ZM19.0728 1.02485C18.9565 1.1375 18.7861 1.30316 18.5686 1.51628L19.9497 2.92512C20.164 2.71501 20.3315 2.55218 20.4451 2.4422L19.0728 1.02485ZM19.1203 0.978951C19.1056 0.993101 19.0898 1.0084 19.0728 1.02484L20.4451 2.44221C20.4617 2.42616 20.4771 2.41122 20.4914 2.39743L19.1203 0.978951ZM19.1233 2.40038L19.1318 2.4085L20.4968 0.984124L20.4883 0.976003L19.1233 2.40038ZM19.1313 2.40805C19.1602 2.43575 19.2034 2.47728 19.26 2.53194L20.63 1.11234C20.572 1.05634 20.5274 1.01352 20.4973 0.984576L19.1313 2.40805ZM19.26 2.53193C19.3733 2.64126 19.5404 2.80311 19.7541 3.01199L21.1329 1.60094C20.916 1.38904 20.7461 1.22434 20.63 1.11234L19.26 2.53193ZM19.7541 3.01198C20.1817 3.42977 20.796 4.03548 21.5405 4.78503L22.9402 3.39474C22.1879 2.63737 21.5666 2.0247 21.1329 1.60094L19.7541 3.01198ZM21.5405 4.78503C23.0302 6.28482 25.0382 8.35729 27.1145 10.6506L28.577 9.3265C26.4745 7.00423 24.4442 4.90894 22.9402 3.39474L21.5405 4.78503ZM27.1145 10.6506C29.193 12.9462 31.3283 15.4505 33.0783 17.8152L34.6641 16.6417C32.8603 14.2043 30.6778 11.6468 28.577 9.3265L27.1145 10.6506ZM33.0783 17.8152C34.8479 20.2066 36.1509 22.3602 36.6571 23.9711L38.5392 23.3796C37.9278 21.434 36.4514 19.057 34.6641 16.6417L33.0783 17.8152ZM36.6571 23.9711C37.5184 26.7122 37.5864 29.3906 37.4321 31.399L39.3991 31.5501C39.5659 29.3795 39.4985 26.4328 38.5392 23.3796L36.6571 23.9711ZM37.4321 31.399C37.3552 32.3999 37.2239 33.2248 37.1129 33.7952L39.0494 34.172C39.1725 33.5393 39.3155 32.6382 39.3991 31.5501L37.4321 31.399ZM37.1129 33.7952C37.0575 34.0802 37.0073 34.3008 36.9718 34.4472L38.8891 34.912C38.9311 34.7386 38.9878 34.4886 39.0494 34.172L37.1129 33.7952ZM36.9718 34.4471C36.954 34.5203 36.94 34.5749 36.9308 34.6096L38.8382 35.1135C38.8507 35.0663 38.868 34.9987 38.8891 34.912L36.9718 34.4471ZM36.9319 34.6054L36.9195 34.6516L38.8247 35.1639L38.8371 35.1177L36.9319 34.6054ZM36.9214 34.6448L36.9182 34.6563L38.8196 35.1822L38.8228 35.1707L36.9214 34.6448ZM36.9195 34.6517L36.9187 34.6545L38.8176 35.1896L38.8183 35.1868L36.9195 34.6517ZM36.9188 34.654L36.9186 34.6546L38.8172 35.1907L38.8174 35.1901L36.9188 34.654ZM36.9157 34.6653L36.9157 34.6655L38.8202 35.1802L38.8202 35.18L36.9157 34.6653ZM37.5977 35.8715L37.6839 35.8961L38.2244 33.9987L38.1381 33.9741L37.5977 35.8715ZM37.684 35.8961C37.7221 35.9069 37.7441 35.9132 37.7567 35.9168L38.2941 34.0185C38.2831 34.0154 38.2625 34.0096 38.2243 33.9987L37.684 35.8961ZM37.7566 35.9167C37.7636 35.9187 37.7703 35.9206 37.7757 35.9221C37.7773 35.9225 37.78 35.9233 37.7833 35.9242C37.7855 35.9248 37.7931 35.9268 37.8028 35.9292C37.8075 35.9304 37.8173 35.9328 37.8298 35.9355C37.8382 35.9373 37.8682 35.9439 37.9071 35.9492C37.9267 35.9519 37.9649 35.9565 38.0134 35.9579C38.0539 35.959 38.1541 35.9599 38.2773 35.9294C38.4175 35.8947 38.6194 35.8108 38.7872 35.6163C38.9334 35.4469 38.984 35.2605 38.9762 35.2838L37.1046 34.6599C37.0969 34.6831 37.1475 34.4967 37.2936 34.3274C37.4615 34.1329 37.6633 34.049 37.8035 34.0143C37.9267 33.9838 38.0269 33.9847 38.0674 33.9858C38.1159 33.9871 38.1541 33.9918 38.1736 33.9945C38.2126 33.9998 38.2425 34.0063 38.2509 34.0081C38.2633 34.0108 38.273 34.0132 38.2776 34.0144C38.287 34.0167 38.2943 34.0187 38.296 34.0191C38.2987 34.0199 38.3007 34.0204 38.3014 34.0206C38.303 34.021 38.3023 34.0208 38.2943 34.0186L37.7566 35.9167ZM38.9889 35.2428L38.989 35.2426L37.092 34.7006L37.092 34.7008L38.9889 35.2428ZM38.9894 35.2409L38.9897 35.24L37.0918 34.7014L37.0916 34.7023L38.9894 35.2409ZM38.9904 35.2374L38.9913 35.2342L37.0919 34.7009L37.091 34.7041L38.9904 35.2374ZM38.9923 35.2307L38.9957 35.2184L37.0944 34.6921L37.091 34.7044L38.9923 35.2307ZM38.9976 35.2113L39.0105 35.1635L37.1053 34.6513L37.0925 34.6991L38.9976 35.2113ZM39.0116 35.1594C39.0244 35.111 39.042 35.0422 39.0634 34.9542L37.1461 34.4894C37.128 34.5638 37.1137 34.6196 37.1042 34.6554L39.0116 35.1594ZM39.0634 34.9543C39.106 34.7784 39.1633 34.5257 39.2255 34.2062L37.2889 33.8295C37.233 34.1173 37.1822 34.3406 37.1461 34.4894L39.0634 34.9543ZM39.2255 34.2062C39.3497 33.5679 39.4938 32.6599 39.5779 31.5638L37.6109 31.4127C37.5334 32.4215 37.401 33.2534 37.2889 33.8295L39.2255 34.2062ZM39.5779 31.5638C39.7458 29.3785 39.6786 26.4074 38.7103 23.3259L36.8282 23.9173C37.6984 26.6868 37.7663 29.3896 37.6109 31.4127L39.5779 31.5638ZM38.7103 23.3259C38.0893 21.3498 36.5972 18.9525 34.8082 16.535L33.2224 17.7086C34.9936 20.102 36.3124 22.276 36.8282 23.9173L38.7103 23.3259ZM34.8082 16.535C32.9996 14.091 30.8128 11.5287 28.71 9.20613L27.2475 10.5302C29.328 12.8281 31.4675 15.3372 33.2224 17.7086L34.8082 16.535ZM28.71 9.20613C26.6051 6.88122 24.5727 4.78386 23.0674 3.26835L21.6677 4.65864C23.1587 6.15974 25.1688 8.23428 27.2475 10.5302L28.71 9.20613ZM23.0674 3.26835C22.3144 2.51027 21.6925 1.89697 21.2582 1.47266L19.8795 2.88371C20.3076 3.30204 20.9225 3.90838 21.6677 4.65864L23.0674 3.26835ZM21.2582 1.47266C21.0411 1.26049 20.8709 1.09553 20.7545 0.983289L19.3846 2.40288C19.4981 2.51244 19.6654 2.67456 19.8795 2.88371L21.2582 1.47266ZM20.7545 0.983289C20.6964 0.927173 20.6517 0.884227 20.6214 0.85514L19.2555 2.27866C19.2845 2.30646 19.3278 2.3481 19.3846 2.40288L20.7545 0.983289ZM20.621 0.854719L20.6098 0.843975L19.2448 2.26834L19.256 2.27908L20.621 0.854719ZM19.1603 2.18141C19.192 2.21451 19.2062 2.22934 19.2124 2.23583L20.6421 0.876483C20.633 0.866913 20.6162 0.849336 20.5852 0.816928L19.1603 2.18141Z" fill="url(#paint0_linear_1124_23910)"/>
<path fill-rule="evenodd" clip-rule="evenodd" d="M14.1414 32.4631C15.4405 30.6183 17.5868 29.4131 20.0146 29.4131C22.3852 29.4131 24.4874 30.5622 25.7946 32.3339C27.1017 30.5622 29.2039 29.4131 31.5746 29.4131C35.5391 29.4131 38.7529 32.6269 38.7529 36.5914L38.7529 44.1195V48.9983C38.7529 49.0568 38.7493 49.1145 38.7423 49.1712C38.7355 49.298 38.7254 49.424 38.712 49.5491C38.7065 49.4996 38.7005 49.4503 38.694 49.4011C38.521 49.9771 37.9868 50.3967 37.3545 50.3967C36.5822 50.3967 35.9562 49.7706 35.9562 48.9983V44.1195H35.9918V36.5207C35.9918 34.081 34.014 32.1032 31.5744 32.1032C29.2759 32.1032 27.3874 33.8587 27.1765 36.102C27.1874 36.2637 27.1929 36.4269 27.1929 36.5914V40.7119H27.2746V54.3423C27.2746 55.1347 26.6322 55.7771 25.8398 55.7771C25.0474 55.7771 24.405 55.1347 24.405 54.3423V45.2986L24.3962 45.2907V36.5914C24.3962 36.4271 24.4017 36.264 24.4126 36.1023C24.2019 33.8588 22.3133 32.1032 20.0147 32.1032C17.575 32.1032 15.5973 34.081 15.5973 36.5207V44.1195H15.633V46.6668C15.633 47.4391 15.0069 48.0652 14.2346 48.0652C13.4623 48.0652 12.8362 47.4391 12.8362 46.6668V45.8539L12.8362 45.8538V36.5781C12.8362 34.1068 10.8327 32.1033 8.36134 32.1033C5.88997 32.1033 3.88652 34.1068 3.88652 36.5781V44.1195H3.8866V53.8407C3.8866 54.613 3.26053 55.2391 2.48822 55.2391C1.71592 55.2391 1.08984 54.613 1.08984 53.8407V44.1195H1.08992V36.5916C1.08992 32.6271 4.30378 29.4132 8.26827 29.4132C10.696 29.4132 12.8423 30.6184 14.1414 32.4631Z" fill="url(#paint1_linear_1124_23910)"/>
<path d="M19.8103 0L21.2664 1.47962H18.3542L19.8103 0Z" fill="#670075"/>
<circle cx="2.52463" cy="57.7502" r="1.43478" fill="url(#paint2_linear_1124_23910)"/>
<circle cx="25.841" cy="58.2878" r="1.43478" fill="url(#paint3_linear_1124_23910)"/>
<circle cx="37.3176" cy="52.9074" r="1.43478" fill="url(#paint4_linear_1124_23910)"/>
<rect x="12.9258" y="49.1411" width="2.69022" height="4.66304" rx="1.34511" fill="url(#paint5_linear_1124_23910)"/>
<path d="M77.1739 22.0927V45.7227H73.2979V35.3867H62.1799V45.7227H58.3039V22.0927H62.1799V32.2247H73.2979V22.0927H77.1739ZM80.9846 36.2707C80.9846 34.3893 81.3699 32.7233 82.1406 31.2727C82.9339 29.822 83.9992 28.7 85.3366 27.9067C86.6966 27.0907 88.1926 26.6827 89.8246 26.6827C91.2979 26.6827 92.5786 26.9773 93.6666 27.5667C94.7772 28.1333 95.6612 28.8473 96.3186 29.7087V26.9887H100.229V45.7227H96.3186V42.9347C95.6612 43.8187 94.7659 44.5553 93.6326 45.1447C92.4992 45.734 91.2072 46.0287 89.7566 46.0287C88.1472 46.0287 86.6739 45.6207 85.3366 44.8047C83.9992 43.966 82.9339 42.81 82.1406 41.3367C81.3699 39.8407 80.9846 38.152 80.9846 36.2707ZM96.3186 36.3387C96.3186 35.0467 96.0466 33.9247 95.5026 32.9727C94.9812 32.0207 94.2899 31.2953 93.4286 30.7967C92.5672 30.298 91.6379 30.0487 90.6406 30.0487C89.6432 30.0487 88.7139 30.298 87.8526 30.7967C86.9912 31.2727 86.2886 31.9867 85.7446 32.9387C85.2232 33.868 84.9626 34.9787 84.9626 36.2707C84.9626 37.5627 85.2232 38.696 85.7446 39.6707C86.2886 40.6453 86.9912 41.3933 87.8526 41.9147C88.7366 42.4133 89.6659 42.6627 90.6406 42.6627C91.6379 42.6627 92.5672 42.4133 93.4286 41.9147C94.2899 41.416 94.9812 40.6907 95.5026 39.7387C96.0466 38.764 96.3186 37.6307 96.3186 36.3387ZM109.196 20.5627V45.7227H105.32V20.5627H109.196ZM112.992 36.2707C112.992 34.3893 113.378 32.7233 114.148 31.2727C114.942 29.822 116.007 28.7 117.344 27.9067C118.704 27.0907 120.2 26.6827 121.832 26.6827C123.306 26.6827 124.586 26.9773 125.674 27.5667C126.785 28.1333 127.669 28.8473 128.326 29.7087V26.9887H132.236V45.7227H128.326V42.9347C127.669 43.8187 126.774 44.5553 125.64 45.1447C124.507 45.734 123.215 46.0287 121.764 46.0287C120.155 46.0287 118.682 45.6207 117.344 44.8047C116.007 43.966 114.942 42.81 114.148 41.3367C113.378 39.8407 112.992 38.152 112.992 36.2707ZM128.326 36.3387C128.326 35.0467 128.054 33.9247 127.51 32.9727C126.989 32.0207 126.298 31.2953 125.436 30.7967C124.575 30.298 123.646 30.0487 122.648 30.0487C121.651 30.0487 120.722 30.298 119.86 30.7967C118.999 31.2727 118.296 31.9867 117.752 32.9387C117.231 33.868 116.97 34.9787 116.97 36.2707C116.97 37.5627 117.231 38.696 117.752 39.6707C118.296 40.6453 118.999 41.3933 119.86 41.9147C120.744 42.4133 121.674 42.6627 122.648 42.6627C123.646 42.6627 124.575 42.4133 125.436 41.9147C126.298 41.416 126.989 40.6907 127.51 39.7387C128.054 38.764 128.326 37.6307 128.326 36.3387ZM141.203 20.5627V45.7227H137.327V20.5627H141.203ZM169.03 22.0927V25.2547H159V32.2247H166.82V35.3867H159V45.7227H155.124V22.0927H169.03ZM180.748 46.0287C178.98 46.0287 177.382 45.632 175.954 44.8387C174.526 44.0227 173.404 42.8893 172.588 41.4387C171.772 39.9653 171.364 38.2653 171.364 36.3387C171.364 34.4347 171.784 32.746 172.622 31.2727C173.461 29.7993 174.606 28.666 176.056 27.8727C177.507 27.0793 179.128 26.6827 180.918 26.6827C182.709 26.6827 184.33 27.0793 185.78 27.8727C187.231 28.666 188.376 29.7993 189.214 31.2727C190.053 32.746 190.472 34.4347 190.472 36.3387C190.472 38.2427 190.042 39.9313 189.18 41.4047C188.319 42.878 187.14 44.0227 185.644 44.8387C184.171 45.632 182.539 46.0287 180.748 46.0287ZM180.748 42.6627C181.746 42.6627 182.675 42.4247 183.536 41.9487C184.42 41.4727 185.134 40.7587 185.678 39.8067C186.222 38.8547 186.494 37.6987 186.494 36.3387C186.494 34.9787 186.234 33.834 185.712 32.9047C185.191 31.9527 184.5 31.2387 183.638 30.7627C182.777 30.2867 181.848 30.0487 180.85 30.0487C179.853 30.0487 178.924 30.2867 178.062 30.7627C177.224 31.2387 176.555 31.9527 176.056 32.9047C175.558 33.834 175.308 34.9787 175.308 36.3387C175.308 38.356 175.818 39.92 176.838 41.0307C177.881 42.1187 179.184 42.6627 180.748 42.6627ZM202.43 46.0287C200.662 46.0287 199.064 45.632 197.636 44.8387C196.208 44.0227 195.086 42.8893 194.27 41.4387C193.454 39.9653 193.046 38.2653 193.046 36.3387C193.046 34.4347 193.465 32.746 194.304 31.2727C195.143 29.7993 196.287 28.666 197.738 27.8727C199.189 27.0793 200.809 26.6827 202.6 26.6827C204.391 26.6827 206.011 27.0793 207.462 27.8727C208.913 28.666 210.057 29.7993 210.896 31.2727C211.735 32.746 212.154 34.4347 212.154 36.3387C212.154 38.2427 211.723 39.9313 210.862 41.4047C210.001 42.878 208.822 44.0227 207.326 44.8387C205.853 45.632 204.221 46.0287 202.43 46.0287ZM202.43 42.6627C203.427 42.6627 204.357 42.4247 205.218 41.9487C206.102 41.4727 206.816 40.7587 207.36 39.8067C207.904 38.8547 208.176 37.6987 208.176 36.3387C208.176 34.9787 207.915 33.834 207.394 32.9047C206.873 31.9527 206.181 31.2387 205.32 30.7627C204.459 30.2867 203.529 30.0487 202.532 30.0487C201.535 30.0487 200.605 30.2867 199.744 30.7627C198.905 31.2387 198.237 31.9527 197.738 32.9047C197.239 33.834 196.99 34.9787 196.99 36.3387C196.99 38.356 197.5 39.92 198.52 41.0307C199.563 42.1187 200.866 42.6627 202.43 42.6627ZM214.694 36.2707C214.694 34.3893 215.079 32.7233 215.85 31.2727C216.643 29.822 217.708 28.7 219.046 27.9067C220.406 27.0907 221.913 26.6827 223.568 26.6827C224.792 26.6827 225.993 26.9547 227.172 27.4987C228.373 28.02 229.325 28.7227 230.028 29.6067V20.5627H233.938V45.7227H230.028V42.9007C229.393 43.8073 228.509 44.5553 227.376 45.1447C226.265 45.734 224.984 46.0287 223.534 46.0287C221.902 46.0287 220.406 45.6207 219.046 44.8047C217.708 43.966 216.643 42.81 215.85 41.3367C215.079 39.8407 214.694 38.152 214.694 36.2707ZM230.028 36.3387C230.028 35.0467 229.756 33.9247 229.212 32.9727C228.69 32.0207 227.999 31.2953 227.138 30.7967C226.276 30.298 225.347 30.0487 224.35 30.0487C223.352 30.0487 222.423 30.298 221.562 30.7967C220.7 31.2727 219.998 31.9867 219.454 32.9387C218.932 33.868 218.672 34.9787 218.672 36.2707C218.672 37.5627 218.932 38.696 219.454 39.6707C219.998 40.6453 220.7 41.3933 221.562 41.9147C222.446 42.4133 223.375 42.6627 224.35 42.6627C225.347 42.6627 226.276 42.4133 227.138 41.9147C227.999 41.416 228.69 40.6907 229.212 39.7387C229.756 38.764 230.028 37.6307 230.028 36.3387Z" fill="#670075"/>
<defs>
<linearGradient id="paint0_linear_1124_23910" x1="19.8315" y1="1.43457" x2="19.8315" y2="34.972" gradientUnits="userSpaceOnUse">
<stop stop-color="#670075"/>
<stop offset="1" stop-color="#B477BD"/>
</linearGradient>
<linearGradient id="paint1_linear_1124_23910" x1="19.9214" y1="29.4131" x2="19.9214" y2="55.7772" gradientUnits="userSpaceOnUse">
<stop stop-color="#670075"/>
<stop offset="1" stop-color="#B477BD"/>
</linearGradient>
<linearGradient id="paint2_linear_1124_23910" x1="2.52463" y1="56.3154" x2="2.52463" y2="59.185" gradientUnits="userSpaceOnUse">
<stop stop-color="#670075"/>
<stop offset="1" stop-color="#B477BD"/>
</linearGradient>
<linearGradient id="paint3_linear_1124_23910" x1="25.841" y1="56.853" x2="25.841" y2="59.7226" gradientUnits="userSpaceOnUse">
<stop stop-color="#670075"/>
<stop offset="1" stop-color="#B477BD"/>
</linearGradient>
<linearGradient id="paint4_linear_1124_23910" x1="37.3176" y1="51.4727" x2="37.3176" y2="54.3422" gradientUnits="userSpaceOnUse">
<stop stop-color="#670075"/>
<stop offset="1" stop-color="#B477BD"/>
</linearGradient>
<linearGradient id="paint5_linear_1124_23910" x1="14.2709" y1="49.1411" x2="14.2709" y2="53.8042" gradientUnits="userSpaceOnUse">
<stop stop-color="#670075"/>
<stop offset="1" stop-color="#B477BD"/>
</linearGradient>
</defs>
</svg>
