<svg width="558" height="726" viewBox="0 0 558 726" fill="none" xmlns="http://www.w3.org/2000/svg">
<path d="M279.756 51.2651L272.27 43.4183L272.26 43.4284L272.249 43.4385L279.756 51.2651ZM280.439 51.9752L272.607 59.4754L272.607 59.4755L280.439 51.9752ZM279.75 51.2709L287.254 59.0995L287.256 59.0975L279.75 51.2709ZM279.726 51.2936L272.221 43.465L272.218 43.4687L279.726 51.2936ZM279.632 51.3837L272.124 43.5587L272.121 43.561L279.632 51.3837ZM279.262 51.7397L286.783 59.5521L286.783 59.5521L279.262 51.7397ZM277.817 53.1351L285.36 60.9262L285.36 60.9262L277.817 53.1351ZM272.313 58.4996L264.722 50.7552L264.722 50.7552L272.313 58.4996ZM252.487 78.2387L260.192 85.8696L260.192 85.8696L252.487 78.2387ZM190.643 143.493L198.691 150.762L198.691 150.762L190.643 143.493ZM124.122 223.577L132.843 230.022L132.843 230.022L124.122 223.577ZM82.7814 295.188L93.1272 298.439L93.1272 298.439L82.7814 295.188ZM73.7089 381.674L62.8962 382.505L62.8962 382.505L73.7089 381.674ZM77.4164 409.484L88.0613 407.413L88.0613 407.413L77.4164 409.484ZM79.0928 417.223L68.5536 419.779L68.5536 419.779L79.0928 417.223ZM79.6074 419.263L90.0922 416.493L90.0922 416.493L79.6074 419.263ZM79.7489 419.79L69.2917 422.662L69.2949 422.673L79.7489 419.79ZM79.7714 419.871L69.3174 422.755L69.3208 422.767L69.3242 422.78L79.7714 419.871ZM79.7864 419.925L69.3392 422.833L69.3425 422.845L69.3458 422.857L79.7864 419.925ZM79.7963 419.96L69.3557 422.892L69.3585 422.902L69.3614 422.912L79.7963 419.96ZM79.7989 419.969L90.2354 417.023L90.2338 417.017L79.7989 419.969ZM79.7996 419.972L69.3631 422.919L69.3652 422.926L69.3673 422.933L79.7996 419.972ZM80.7482 419.703L83.7177 430.133L83.7181 430.133L80.7482 419.703ZM81.5651 419.47L78.5957 409.04L78.5952 409.041L81.5651 419.47ZM81.6963 419.433L71.2585 422.375L71.2859 422.472L71.3151 422.569L81.6963 419.433ZM81.6959 419.431L92.1337 416.489L92.1306 416.479L81.6959 419.431ZM81.6939 419.424L71.2532 422.356L71.2561 422.367L71.2591 422.377L81.6939 419.424ZM81.6852 419.394L71.2421 422.317L71.2446 422.326L81.6852 419.394ZM81.6503 419.267L92.1077 416.396L92.1077 416.396L81.6503 419.267ZM81.009 416.759L91.5483 414.204L91.5482 414.204L81.009 416.759ZM79.3519 409.108L68.7069 411.179L68.7069 411.179L79.3519 409.108ZM75.6748 381.523L86.4875 380.692L86.4875 380.692L75.6748 381.523ZM84.6625 295.78L74.3167 292.529L74.3167 292.529L84.6625 295.78ZM125.707 224.749L116.986 218.303L116.986 218.303L125.707 224.749ZM192.106 144.814L200.154 152.083L200.154 152.083L192.106 144.814ZM253.888 79.6262L246.183 71.9953L246.183 71.9953L253.888 79.6262ZM273.693 59.9076L266.102 52.1633L266.102 52.1633L273.693 59.9076ZM279.188 54.5517L286.732 62.3428L286.732 62.3428L279.188 54.5517ZM279.702 54.0543L287.209 46.2277L279.673 39.0003L272.166 46.2568L279.702 54.0543ZM279.796 54.1443L272.288 61.969L272.288 61.9692L279.796 54.1443ZM281.233 55.5276L273.703 63.3311L273.703 63.3311L281.233 55.5276ZM286.714 60.8522L279.135 68.6087L279.135 68.6087L286.714 60.8522ZM306.468 80.4591L298.774 88.1014L298.774 88.1014L306.468 80.4591ZM368.093 145.308L360.054 152.587L360.054 152.587L368.093 145.308ZM434.336 224.903L425.619 231.354L425.619 231.354L434.336 224.903ZM475.309 295.78L464.964 299.031L464.964 299.031L475.309 295.78ZM484.297 381.523L473.484 380.692L473.484 380.693L484.297 381.523ZM480.62 409.108L469.975 407.037L469.975 407.037L480.62 409.108ZM478.963 416.759L489.502 419.314L489.502 419.314L478.963 416.759ZM478.458 418.76L488.943 421.531L488.943 421.53L478.458 418.76ZM478.322 419.267L488.777 422.147L488.779 422.14L478.322 419.267ZM478.303 419.336L488.751 422.242L488.754 422.229L488.758 422.215L478.303 419.336ZM478.287 419.394L488.725 422.333L488.73 422.317L488.734 422.3L478.287 419.394ZM478.278 419.424L467.84 416.485L467.837 416.492L478.278 419.424ZM478.276 419.432L488.703 422.411L488.71 422.387L488.717 422.364L478.276 419.432ZM478.276 419.433L467.848 416.454L467.728 416.876L467.642 417.306L478.276 419.433ZM478.865 419.601L475.895 430.031L475.896 430.031L478.865 419.601ZM479.224 419.703L482.193 409.273L482.193 409.273L479.224 419.703ZM480.172 419.972L469.759 416.945L469.701 417.142L469.652 417.342L480.172 419.972ZM480.173 419.969L490.587 422.996L490.6 422.95L490.613 422.903L480.173 419.969ZM480.176 419.96L490.616 422.894L490.616 422.892L480.176 419.96ZM480.186 419.925L490.626 422.857L490.63 422.844L490.634 422.83L480.186 419.925ZM480.202 419.866L490.65 422.772L490.652 422.763L490.655 422.754L480.202 419.866ZM480.223 419.79L490.676 422.677L490.678 422.67L490.68 422.663L480.223 419.79ZM480.272 419.608L490.742 422.436L490.742 422.436L480.272 419.608ZM480.365 419.263L469.88 416.493L469.88 416.494L480.365 419.263ZM480.879 417.223L491.418 419.779L491.418 419.778L480.879 417.223ZM482.556 409.484L493.2 411.555L493.2 411.555L482.556 409.484ZM486.263 381.674L475.45 380.844L475.45 380.844L486.263 381.674ZM477.191 295.189L466.845 298.439L477.191 295.189ZM435.921 223.73L444.638 217.28L444.638 217.279L435.921 223.73ZM369.555 143.985L377.594 136.706L377.594 136.706L369.555 143.985ZM307.867 79.0695L315.561 71.4272L315.561 71.4272L307.867 79.0695ZM288.092 59.442L280.513 67.1984L280.513 67.1984L288.092 59.442ZM282.602 54.1088L275.072 61.9123L275.072 61.9123L282.602 54.1088ZM281.161 52.7216L288.67 44.8967L288.669 44.896L281.161 52.7216ZM281.061 52.6252L273.192 60.0877L273.369 60.2743L273.555 60.4523L281.061 52.6252ZM287.241 59.1119C287.466 58.8976 285.677 60.8451 282.757 61.6859C279.609 62.5926 277.016 61.8388 275.799 61.3618C274.632 60.9044 273.819 60.3466 273.54 60.1516C273.179 59.8987 272.909 59.6768 272.778 59.5666C272.515 59.3452 272.321 59.1597 272.272 59.1129C272.195 59.0397 272.137 58.9817 272.112 58.9565C272.035 58.8802 271.983 58.8253 272.039 58.8837C272.107 58.9539 272.262 59.1153 272.607 59.4754L288.272 44.4749C287.935 44.1231 287.749 43.9287 287.645 43.8216C287.616 43.7914 287.521 43.6923 287.422 43.5943C287.392 43.5636 287.329 43.5016 287.249 43.4254C287.197 43.3756 287.001 43.1882 286.736 42.9655C286.604 42.8547 286.334 42.6323 285.972 42.3791C285.693 42.1838 284.88 41.6258 283.713 41.1684C282.496 40.6912 279.902 39.9374 276.754 40.8441C275.246 41.2785 274.104 41.9604 273.333 42.5269C272.968 42.7952 272.69 43.0349 272.524 43.1833C272.44 43.2589 272.373 43.3213 272.333 43.359C272.317 43.3738 272.294 43.3961 272.286 43.4035C272.278 43.4109 272.27 43.4183 272.27 43.4183L287.241 59.1119ZM287.256 59.0975L287.262 59.0918L272.249 43.4385L272.243 43.4442L287.256 59.0975ZM287.23 59.1222L287.254 59.0995L272.245 43.4423L272.221 43.465L287.23 59.1222ZM287.14 59.2086L287.234 59.1185L272.218 43.4687L272.124 43.5587L287.14 59.2086ZM286.783 59.5521C286.943 59.3984 287.063 59.2829 287.143 59.2063L272.121 43.561C272.035 43.6439 271.908 43.7664 271.74 43.9273L286.783 59.5521ZM285.36 60.9262C285.986 60.3203 286.463 59.8597 286.783 59.5521L271.74 43.9273C271.407 44.2487 270.914 44.7235 270.273 45.3441L285.36 60.9262ZM279.904 66.2439C282.264 63.931 284.109 62.138 285.36 60.9262L270.273 45.3441C268.992 46.5851 267.115 48.4092 264.722 50.7552L279.904 66.2439ZM260.192 85.8696C268.407 77.5748 275.185 70.8701 279.904 66.2439L264.722 50.7552C259.936 55.4468 253.081 62.2276 244.782 70.6079L260.192 85.8696ZM198.691 150.762C221.601 125.396 243.757 102.465 260.192 85.8696L244.782 70.6079C228.19 87.3611 205.792 110.542 182.595 136.224L198.691 150.762ZM132.843 230.022C152.18 203.857 175.76 176.149 198.691 150.762L182.595 136.224C159.422 161.88 135.325 190.172 115.4 217.131L132.843 230.022ZM93.1272 298.439C98.7977 280.394 113.325 256.431 132.843 230.022L115.4 217.131C95.6929 243.798 79.2619 270.214 72.4357 291.938L93.1272 298.439ZM84.5216 380.843C82.8129 358.601 83.5595 328.887 93.1272 298.439L72.4357 291.937C61.7902 325.815 61.0506 358.479 62.8962 382.505L84.5216 380.843ZM88.0613 407.413C86.8292 401.08 85.3736 391.934 84.5216 380.843L62.8962 382.505C63.8219 394.554 65.4061 404.537 66.7715 411.555L88.0613 407.413ZM89.632 414.668C89.2353 413.032 88.6769 410.577 88.0613 407.413L66.7715 411.555C67.4547 415.067 68.0849 417.845 68.5536 419.779L89.632 414.668ZM90.0922 416.493C89.9881 416.099 89.8303 415.486 89.632 414.668L68.5536 419.779C68.788 420.745 68.9822 421.502 69.1227 422.033L90.0922 416.493ZM90.2062 416.917C90.1828 416.832 90.1442 416.69 90.0922 416.493L69.1226 422.033C69.1929 422.299 69.2498 422.509 69.2917 422.662L90.2062 416.917ZM90.2255 416.987L90.203 416.906L69.2949 422.673L69.3174 422.755L90.2255 416.987ZM90.2336 417.016L90.2187 416.963L69.3242 422.78L69.3392 422.833L90.2336 417.016ZM90.2369 417.028L90.227 416.993L69.3458 422.857L69.3557 422.892L90.2369 417.028ZM90.2338 417.017L90.2311 417.007L69.3614 422.912L69.364 422.922L90.2338 417.017ZM90.2362 417.025L90.2354 417.023L69.3624 422.916L69.3631 422.919L90.2362 417.025ZM77.7786 409.273C77.3025 409.409 77.0751 409.473 76.9677 409.504C76.9012 409.522 76.9146 409.519 76.95 409.509C76.9623 409.505 76.9936 409.497 77.0348 409.486C77.0608 409.479 77.167 409.451 77.3046 409.418C77.3724 409.402 77.514 409.369 77.6947 409.334C77.8173 409.309 78.2543 409.223 78.8216 409.172C79.1095 409.146 79.6586 409.106 80.3488 409.141C80.9697 409.173 82.2927 409.287 83.838 409.907C85.6586 410.638 87.4956 411.957 88.8347 413.974C89.4214 414.858 89.7663 415.66 89.9644 416.193C90.0622 416.456 90.131 416.672 90.1712 416.804C90.1868 416.856 90.2097 416.933 90.2172 416.959C90.2246 416.985 90.232 417.011 90.232 417.011L69.3673 422.933C69.3673 422.933 69.3747 422.959 69.3821 422.985C69.3896 423.011 69.4125 423.088 69.4281 423.14C69.4683 423.271 69.5371 423.488 69.6349 423.751C69.833 424.284 70.1779 425.086 70.7646 425.97C72.1038 427.987 73.9407 429.306 75.7614 430.036C78.4021 431.096 80.7534 430.774 80.7782 430.772C81.3458 430.721 81.7831 430.634 81.9062 430.61C82.0875 430.574 82.2298 430.541 82.2985 430.525C82.438 430.492 82.547 430.463 82.5771 430.455C82.6226 430.443 82.6594 430.433 82.6792 430.427C82.7443 430.41 82.817 430.389 82.8691 430.374C82.9988 430.338 83.2456 430.268 83.7177 430.133L77.7786 409.273ZM78.5952 409.041L77.7782 409.273L83.7181 430.133L84.5351 429.9L78.5952 409.041ZM71.3151 422.569C71.3968 422.839 70.7566 421.065 70.8653 418.891C70.9994 416.21 72.086 414.054 73.3012 412.568C74.3252 411.316 75.3874 410.596 75.8483 410.3C76.3822 409.959 76.8341 409.736 77.0666 409.626C77.5281 409.409 77.9035 409.273 78.0046 409.236C78.1572 409.181 78.2788 409.141 78.3363 409.122C78.4534 409.084 78.5454 409.056 78.5679 409.05C78.6038 409.039 78.632 409.03 78.6445 409.027C78.6827 409.016 78.7139 409.007 78.6983 409.011C78.6894 409.014 78.6636 409.021 78.5957 409.04L84.5346 429.901C84.5979 429.883 84.6377 429.871 84.6615 429.864C84.6624 429.864 84.7018 429.853 84.7441 429.84C84.7576 429.837 84.7865 429.828 84.823 429.817C84.846 429.81 84.9385 429.782 85.0558 429.744C85.1134 429.725 85.2351 429.685 85.3879 429.63C85.489 429.593 85.8644 429.458 86.326 429.24C86.5585 429.13 87.0104 428.907 87.5444 428.566C88.0052 428.27 89.0675 427.55 90.0915 426.298C91.3066 424.812 92.3932 422.656 92.5273 419.975C92.636 417.801 91.9958 416.027 92.0775 416.297L71.3151 422.569ZM71.2581 422.374L71.2585 422.375L92.1341 416.491L92.1337 416.489L71.2581 422.374ZM71.2591 422.377L71.2611 422.384L92.1306 416.479L92.1286 416.471L71.2591 422.377ZM71.2446 422.326L71.2532 422.356L92.1345 416.492L92.1259 416.462L71.2446 422.326ZM71.1928 422.139C71.2128 422.212 71.2293 422.271 71.2421 422.317L92.1284 416.471C92.1257 416.461 92.1187 416.436 92.1077 416.396L71.1928 422.139ZM71.029 421.53C71.0976 421.789 71.1528 421.993 71.1929 422.139L92.1077 416.396C92.0858 416.316 92.0488 416.18 91.9985 415.989L71.029 421.53ZM70.4698 419.314C70.7009 420.267 70.8918 421.01 71.029 421.53L91.9985 415.989C91.8977 415.608 91.7433 415.008 91.5483 414.204L70.4698 419.314ZM68.7069 411.179C69.384 414.659 70.0077 417.408 70.4698 419.314L91.5482 414.204C91.1581 412.594 90.6062 410.169 89.9968 407.037L68.7069 411.179ZM64.8622 382.354C65.7811 394.316 67.3536 404.223 68.7069 411.179L89.9968 407.037C88.7768 400.766 87.3328 391.696 86.4875 380.692L64.8622 382.354ZM74.3167 292.529C63.7692 326.094 63.029 358.49 64.8622 382.354L86.4875 380.692C84.7913 358.612 85.5386 329.166 95.0082 299.031L74.3167 292.529ZM116.986 218.303C97.2961 244.946 81.0379 271.139 74.3167 292.529L95.0082 299.031C100.574 281.32 114.928 257.58 134.429 231.194L116.986 218.303ZM184.058 137.545C160.907 163.177 136.857 191.416 116.986 218.303L134.429 231.194C153.712 205.102 177.246 177.446 200.154 152.083L184.058 137.545ZM246.183 71.9953C229.606 88.7342 207.229 111.892 184.058 137.545L200.154 152.083C223.038 126.747 245.172 103.838 261.593 87.257L246.183 71.9953ZM266.102 52.1633C261.322 56.8489 254.474 63.6228 246.183 71.9953L261.593 87.257C269.8 78.97 276.571 72.2722 281.285 67.652L266.102 52.1633ZM271.645 46.7606C270.366 47.999 268.492 49.8203 266.102 52.1633L281.285 67.652C283.641 65.342 285.483 63.5519 286.732 62.3428L271.645 46.7606ZM272.166 46.2568C272.005 46.4123 271.831 46.5804 271.645 46.7606L286.732 62.3428C286.914 62.1667 287.083 62.003 287.239 61.8519L272.166 46.2568ZM272.196 61.8809C272.225 61.909 272.256 61.9383 272.288 61.969L287.305 46.3196C287.271 46.2872 287.239 46.2566 287.209 46.2277L272.196 61.8809ZM272.288 61.9692C272.605 62.2737 273.08 62.7301 273.703 63.3311L288.764 47.7242C288.126 47.1086 287.636 46.6378 287.304 46.3194L272.288 61.9692ZM273.703 63.3311C274.948 64.5329 276.785 66.3123 279.135 68.6087L294.293 53.0958C291.909 50.7662 290.04 48.9555 288.764 47.7242L273.703 63.3311ZM279.135 68.6087C283.835 73.2018 290.588 79.8609 298.774 88.1014L314.162 72.8167C305.891 64.4902 299.061 57.7546 294.293 53.0958L279.135 68.6087ZM298.774 88.1014C315.151 104.59 337.228 127.374 360.054 152.587L376.133 138.03C353.017 112.499 330.697 89.4636 314.162 72.8167L298.774 88.1014ZM360.054 152.587C382.905 177.825 406.379 205.356 425.619 231.354L443.053 218.452C423.223 191.656 399.228 163.539 376.133 138.03L360.054 152.587ZM425.619 231.354C445.074 257.644 459.399 281.321 464.964 299.031L485.655 292.529C478.934 271.138 462.703 245.006 443.053 218.452L425.619 231.354ZM464.964 299.031C474.433 329.166 475.181 358.612 473.484 380.692L495.11 382.354C496.943 358.49 496.203 326.094 485.655 292.529L464.964 299.031ZM473.484 380.693C472.639 391.696 471.195 400.766 469.975 407.037L491.265 411.179C492.618 404.223 494.191 394.316 495.11 382.354L473.484 380.693ZM469.975 407.037C469.366 410.169 468.814 412.594 468.424 414.204L489.502 419.314C489.964 417.408 490.588 414.659 491.265 411.178L469.975 407.037ZM468.424 414.204C468.229 415.008 468.074 415.608 467.974 415.989L488.943 421.53C489.08 421.01 489.271 420.267 489.502 419.314L468.424 414.204ZM467.974 415.988C467.923 416.18 467.886 416.316 467.865 416.394L488.779 422.14C488.819 421.993 488.874 421.789 488.943 421.531L467.974 415.988ZM467.866 416.388L467.848 416.456L488.758 422.215L488.777 422.147L467.866 416.388ZM467.855 416.429L467.839 416.487L488.734 422.3L488.751 422.242L467.855 416.429ZM467.848 416.454L467.84 416.485L488.717 422.364L488.725 422.333L467.848 416.454ZM467.837 416.492L467.835 416.499L488.717 422.364L488.719 422.357L467.837 416.492ZM467.849 416.452L467.848 416.454L488.703 422.412L488.703 422.411L467.849 416.452ZM467.642 417.306C467.597 417.531 466.693 421.239 468.998 425.049C470.545 427.604 472.709 428.745 472.966 428.889C473.58 429.234 474.092 429.439 474.245 429.501C474.462 429.588 474.636 429.649 474.72 429.678C474.891 429.737 475.026 429.779 475.061 429.79C475.115 429.807 475.158 429.82 475.178 429.826C475.219 429.838 475.252 429.847 475.26 429.85C475.274 429.854 475.285 429.857 475.291 429.859C475.313 429.865 475.343 429.874 475.377 429.883C475.452 429.905 475.601 429.947 475.895 430.031L481.835 409.171C481.539 409.087 481.394 409.045 481.322 409.025C481.282 409.014 481.275 409.012 481.278 409.013C481.28 409.013 481.288 409.015 481.299 409.018C481.305 409.02 481.336 409.029 481.376 409.041C481.395 409.047 481.438 409.06 481.491 409.076C481.526 409.087 481.661 409.129 481.831 409.188C481.916 409.217 482.09 409.279 482.306 409.365C482.459 409.427 482.971 409.632 483.585 409.977C483.842 410.121 486.006 411.262 487.553 413.818C488.522 415.419 489.046 417.218 489.113 419.033C489.167 420.51 488.873 421.742 488.91 421.56L467.642 417.306ZM475.896 430.031L476.255 430.133L482.193 409.273L481.834 409.171L475.896 430.031ZM476.254 430.133C476.726 430.268 476.973 430.338 477.103 430.374C477.155 430.389 477.227 430.41 477.292 430.427C477.312 430.433 477.349 430.443 477.394 430.455C477.424 430.463 477.532 430.491 477.671 430.524C477.739 430.54 477.881 430.573 478.061 430.609C478.183 430.633 478.621 430.72 479.189 430.772C479.476 430.798 480.03 430.838 480.726 430.802C481.348 430.771 482.703 430.654 484.282 430.008C486.154 429.241 488.03 427.852 489.357 425.738C489.935 424.817 490.263 423.987 490.447 423.442C490.538 423.172 490.601 422.95 490.638 422.815C490.652 422.762 490.673 422.683 490.679 422.656C490.686 422.629 490.693 422.602 490.693 422.602L469.652 417.342C469.652 417.341 469.658 417.314 469.665 417.288C469.672 417.261 469.693 417.182 469.707 417.129C469.744 416.994 469.807 416.772 469.898 416.502C470.082 415.957 470.41 415.126 470.988 414.206C472.315 412.092 474.191 410.703 476.063 409.936C477.642 409.29 478.997 409.173 479.618 409.142C480.314 409.106 480.868 409.146 481.156 409.172C481.723 409.224 482.161 409.311 482.282 409.335C482.462 409.37 482.603 409.403 482.67 409.419C482.807 409.452 482.912 409.479 482.938 409.486C482.979 409.497 483.01 409.506 483.022 409.509C483.058 409.519 483.071 409.522 483.004 409.504C482.897 409.473 482.669 409.409 482.193 409.273L476.254 430.133ZM490.586 422.999L490.587 422.996L469.76 416.942L469.759 416.945L490.586 422.999ZM490.613 422.903L490.616 422.894L469.736 417.026L469.733 417.035L490.613 422.903ZM490.616 422.892L490.626 422.857L469.745 416.992L469.735 417.027L490.616 422.892ZM490.634 422.83L490.65 422.772L469.754 416.961L469.738 417.019L490.634 422.83ZM490.655 422.754L490.676 422.677L469.77 416.902L469.749 416.979L490.655 422.754ZM490.68 422.663C490.698 422.597 490.719 422.521 490.742 422.436L469.803 416.78C469.788 416.836 469.776 416.882 469.766 416.916L490.68 422.663ZM490.742 422.436C490.772 422.322 490.809 422.188 490.849 422.033L469.88 416.494C469.85 416.606 469.824 416.702 469.803 416.781L490.742 422.436ZM490.849 422.033C490.99 421.502 491.184 420.745 491.418 419.779L470.34 414.668C470.142 415.486 469.984 416.099 469.88 416.493L490.849 422.033ZM491.418 419.778C491.887 417.845 492.517 415.067 493.2 411.555L471.911 407.413C471.295 410.577 470.737 413.032 470.34 414.668L491.418 419.778ZM493.2 411.555C494.566 404.537 496.15 394.554 497.076 382.505L475.45 380.844C474.598 391.934 473.143 401.08 471.911 407.413L493.2 411.555ZM497.076 382.505C498.921 358.479 498.182 325.815 487.536 291.938L466.845 298.439C476.412 328.887 477.159 358.601 475.45 380.844L497.076 382.505ZM487.536 291.938C480.71 270.212 464.306 243.857 444.638 217.28L427.204 230.181C446.676 256.495 461.175 280.395 466.845 298.439L487.536 291.938ZM444.638 217.279C424.754 190.411 400.712 162.24 377.594 136.706L361.516 151.263C384.388 176.526 407.911 204.111 427.204 230.181L444.638 217.279ZM377.594 136.706C354.453 111.147 332.11 88.0885 315.561 71.4272L300.173 86.7119C316.565 103.215 338.663 126.022 361.516 151.263L377.594 136.706ZM315.561 71.4272C307.282 63.0929 300.445 56.3503 295.671 51.6855L280.513 67.1984C285.22 71.7975 291.98 78.4635 300.173 86.7119L315.561 71.4272ZM295.671 51.6855C293.284 49.3529 291.412 47.5393 290.133 46.3054L275.072 61.9123C276.32 63.1168 278.16 64.8991 280.513 67.1984L295.671 51.6855ZM290.133 46.3054C289.494 45.6884 289.003 45.2163 288.67 44.8967L273.653 60.5464C273.972 60.8522 274.448 61.31 275.072 61.9123L290.133 46.3054ZM288.669 44.896C288.635 44.8631 288.599 44.8294 288.567 44.798L273.555 60.4523C273.585 60.4817 273.617 60.5122 273.654 60.5472L288.669 44.896ZM272.607 59.4755C272.993 59.8788 273.14 60.0326 273.192 60.0877L288.929 45.1627C288.833 45.0607 288.643 44.8624 288.272 44.4749L272.607 59.4755Z" fill="url(#paint0_linear_553_3104)"/>
<path fill-rule="evenodd" clip-rule="evenodd" d="M73.9399 437.773C73.9399 394.188 109.273 358.855 152.858 358.855C179.549 358.855 203.145 372.105 217.427 392.387C231.709 372.105 255.305 358.855 281.996 358.855C308.058 358.855 331.17 371.489 345.541 390.966C359.912 371.489 383.023 358.855 409.086 358.855C452.671 358.855 488.004 394.188 488.004 437.773V520.537H488.004V574.174C488.004 574.82 487.964 575.457 487.887 576.081C487.812 577.473 487.701 578.856 487.554 580.228C487.494 579.685 487.428 579.143 487.357 578.604C485.455 584.935 479.581 589.548 472.631 589.548C464.14 589.548 457.257 582.665 457.257 574.174V520.537H457.65V436.996C457.65 410.174 435.906 388.431 409.085 388.431C383.812 388.431 363.048 407.735 360.734 432.403C360.853 434.178 360.914 435.968 360.914 437.773V483.074H361.812V632.926C361.812 641.638 354.75 648.7 346.039 648.7C337.327 648.7 330.265 641.638 330.265 632.926V533.5L330.168 533.413V437.773C330.168 435.968 330.228 434.176 330.348 432.401C328.033 407.735 307.269 388.431 281.997 388.431C255.176 388.431 233.432 410.175 233.432 436.996V520.537H233.825V548.542C233.825 557.032 226.942 563.915 218.452 563.915C209.961 563.915 203.078 557.032 203.078 548.542V539.604V520.537V437.773L203.078 437.627C203.078 410.457 181.052 388.431 153.882 388.431C126.712 388.431 104.687 410.457 104.687 437.627V520.537H104.687V627.411C104.687 635.902 97.8044 642.785 89.3137 642.785C80.8231 642.785 73.9401 635.902 73.9401 627.411V571.91L73.9399 571.753V437.773Z" fill="url(#paint1_linear_553_3104)"/>
<path d="M279.739 35.4912L295.748 51.758H263.731L279.739 35.4912Z" fill="#670075"/>
<circle cx="89.7138" cy="670.389" r="15.7739" fill="url(#paint2_linear_553_3104)"/>
<circle cx="346.039" cy="676.304" r="15.7739" fill="url(#paint3_linear_553_3104)"/>
<circle cx="472.23" cy="617.152" r="15.7739" fill="url(#paint4_linear_553_3104)"/>
<rect x="204.075" y="575.746" width="29.576" height="51.265" rx="14.788" fill="url(#paint5_linear_553_3104)"/>
<defs>
<linearGradient id="paint0_linear_553_3104" x1="279.986" y1="51.265" x2="279.986" y2="419.972" gradientUnits="userSpaceOnUse">
<stop stop-color="#670075"/>
<stop offset="1" stop-color="#B477BD"/>
</linearGradient>
<linearGradient id="paint1_linear_553_3104" x1="280.972" y1="358.855" x2="280.972" y2="648.7" gradientUnits="userSpaceOnUse">
<stop stop-color="#670075"/>
<stop offset="1" stop-color="#B477BD"/>
</linearGradient>
<linearGradient id="paint2_linear_553_3104" x1="89.7138" y1="654.615" x2="89.7138" y2="686.163" gradientUnits="userSpaceOnUse">
<stop stop-color="#670075"/>
<stop offset="1" stop-color="#B477BD"/>
</linearGradient>
<linearGradient id="paint3_linear_553_3104" x1="346.039" y1="660.53" x2="346.039" y2="692.078" gradientUnits="userSpaceOnUse">
<stop stop-color="#670075"/>
<stop offset="1" stop-color="#B477BD"/>
</linearGradient>
<linearGradient id="paint4_linear_553_3104" x1="472.23" y1="601.378" x2="472.23" y2="632.926" gradientUnits="userSpaceOnUse">
<stop stop-color="#670075"/>
<stop offset="1" stop-color="#B477BD"/>
</linearGradient>
<linearGradient id="paint5_linear_553_3104" x1="218.863" y1="575.746" x2="218.863" y2="627.011" gradientUnits="userSpaceOnUse">
<stop stop-color="#670075"/>
<stop offset="1" stop-color="#B477BD"/>
</linearGradient>
</defs>
</svg>
